<?xml version="1.0" standalone="no"?>
<!DOCTYPE svg PUBLIC "-//W3C//DTD SVG 1.1//EN" "http://www.w3.org/Graphics/SVG/1.1/DTD/svg11.dtd">
<svg width="181mm" height="181mm" viewBox="0 -181 181 181" xmlns="http://www.w3.org/2000/svg" version="1.1">
<title>OpenSCAD Model</title>
<path d="
M 181,-181 L 0,-181 L 0,-0 L 181,-0 z
M 96,-159.175 L 96,-160.175 L 95.2,-160.175 L 95.2,-163.675 L 96,-163.675 L 96,-168.675
 L 95.2,-168.675 L 95.2,-172.175 L 96,-172.175 L 96,-173.175 L 110,-173.175 L 110,-172.175
 L 110.8,-172.175 L 110.8,-168.675 L 110,-168.675 L 110,-163.675 L 110.8,-163.675 L 110.8,-160.175
 L 110,-160.175 L 110,-159.175 z
M 117.095,-151.71 L 117.13,-152.71 L 116.331,-152.738 L 116.453,-156.236 L 117.252,-156.208 L 117.427,-161.205
 L 116.627,-161.232 L 116.749,-164.73 L 117.549,-164.702 L 117.584,-165.702 L 131.575,-165.213 L 131.54,-164.214
 L 132.34,-164.186 L 132.218,-160.688 L 131.418,-160.716 L 131.244,-155.719 L 132.043,-155.691 L 131.921,-152.193
 L 131.122,-152.221 L 131.087,-151.222 z
M 57.9,-147.675 L 57.9,-148.675 L 57.1,-148.675 L 57.1,-152.175 L 57.9,-152.175 L 57.9,-157.175
 L 57.1,-157.175 L 57.1,-160.675 L 57.9,-160.675 L 57.9,-161.675 L 71.9,-161.675 L 71.9,-160.675
 L 72.7,-160.675 L 72.7,-157.175 L 71.9,-157.175 L 71.9,-152.175 L 72.7,-152.175 L 72.7,-148.675
 L 71.9,-148.675 L 71.9,-147.675 z
M 76.95,-147.675 L 76.95,-148.675 L 76.15,-148.675 L 76.15,-152.175 L 76.95,-152.175 L 76.95,-157.175
 L 76.15,-157.175 L 76.15,-160.675 L 76.95,-160.675 L 76.95,-161.675 L 90.95,-161.675 L 90.95,-160.675
 L 91.75,-160.675 L 91.75,-157.175 L 90.95,-157.175 L 90.95,-152.175 L 91.75,-152.175 L 91.75,-148.675
 L 90.95,-148.675 L 90.95,-147.675 z
M 96,-140.125 L 96,-141.125 L 95.2,-141.125 L 95.2,-144.625 L 96,-144.625 L 96,-149.625
 L 95.2,-149.625 L 95.2,-153.125 L 96,-153.125 L 96,-154.125 L 110,-154.125 L 110,-153.125
 L 110.8,-153.125 L 110.8,-149.625 L 110,-149.625 L 110,-144.625 L 110.8,-144.625 L 110.8,-141.125
 L 110,-141.125 L 110,-140.125 z
M 38.85,-138.15 L 38.85,-139.15 L 38.05,-139.15 L 38.05,-142.65 L 38.85,-142.65 L 38.85,-147.65
 L 38.05,-147.65 L 38.05,-151.15 L 38.85,-151.15 L 38.85,-152.15 L 52.85,-152.15 L 52.85,-151.15
 L 53.65,-151.15 L 53.65,-147.65 L 52.85,-147.65 L 52.85,-142.65 L 53.65,-142.65 L 53.65,-139.15
 L 52.85,-139.15 L 52.85,-138.15 z
M 137.254,-137.36 L 137.323,-138.357 L 136.525,-138.413 L 136.77,-141.904 L 137.568,-141.849 L 137.916,-146.836
 L 137.118,-146.892 L 137.363,-150.384 L 138.161,-150.328 L 138.23,-151.325 L 152.196,-150.349 L 152.126,-149.351
 L 152.924,-149.295 L 152.68,-145.804 L 151.882,-145.86 L 151.534,-140.872 L 152.332,-140.816 L 152.087,-137.325
 L 151.289,-137.381 L 151.22,-136.383 z
M 156.048,-133.038 L 156.118,-134.036 L 155.32,-134.091 L 155.564,-137.583 L 156.362,-137.527 L 156.711,-142.515
 L 155.913,-142.571 L 156.157,-146.062 L 156.955,-146.006 L 157.025,-147.004 L 170.991,-146.027 L 170.921,-145.03
 L 171.719,-144.974 L 171.475,-141.482 L 170.677,-141.538 L 170.328,-136.55 L 171.126,-136.495 L 170.882,-133.003
 L 170.084,-133.059 L 170.014,-132.061 z
M 116.43,-132.672 L 116.465,-133.671 L 115.666,-133.699 L 115.788,-137.197 L 116.587,-137.169 L 116.762,-142.166
 L 115.962,-142.194 L 116.085,-145.692 L 116.884,-145.664 L 116.919,-146.663 L 130.91,-146.175 L 130.876,-145.175
 L 131.675,-145.147 L 131.553,-141.65 L 130.753,-141.678 L 130.579,-136.681 L 131.378,-136.653 L 131.256,-133.155
 L 130.457,-133.183 L 130.422,-132.183 z
M 57.9,-128.625 L 57.9,-129.625 L 57.1,-129.625 L 57.1,-133.125 L 57.9,-133.125 L 57.9,-138.125
 L 57.1,-138.125 L 57.1,-141.625 L 57.9,-141.625 L 57.9,-142.625 L 71.9,-142.625 L 71.9,-141.625
 L 72.7,-141.625 L 72.7,-138.125 L 71.9,-138.125 L 71.9,-133.125 L 72.7,-133.125 L 72.7,-129.625
 L 71.9,-129.625 L 71.9,-128.625 z
M 76.95,-128.625 L 76.95,-129.625 L 76.15,-129.625 L 76.15,-133.125 L 76.95,-133.125 L 76.95,-138.125
 L 76.15,-138.125 L 76.15,-141.625 L 76.95,-141.625 L 76.95,-142.625 L 90.95,-142.625 L 90.95,-141.625
 L 91.75,-141.625 L 91.75,-138.125 L 90.95,-138.125 L 90.95,-133.125 L 91.75,-133.125 L 91.75,-129.625
 L 90.95,-129.625 L 90.95,-128.625 z
M 96,-121.075 L 96,-122.075 L 95.2,-122.075 L 95.2,-125.575 L 96,-125.575 L 96,-130.575
 L 95.2,-130.575 L 95.2,-134.075 L 96,-134.075 L 96,-135.075 L 110,-135.075 L 110,-134.075
 L 110.8,-134.075 L 110.8,-130.575 L 110,-130.575 L 110,-125.575 L 110.8,-125.575 L 110.8,-122.075
 L 110,-122.075 L 110,-121.075 z
M 135.925,-118.356 L 135.995,-119.354 L 135.197,-119.409 L 135.441,-122.901 L 136.239,-122.845 L 136.588,-127.833
 L 135.789,-127.889 L 136.034,-131.38 L 136.832,-131.324 L 136.901,-132.322 L 150.867,-131.345 L 150.798,-130.348
 L 151.596,-130.292 L 151.351,-126.8 L 150.553,-126.856 L 150.205,-121.868 L 151.003,-121.813 L 150.759,-118.321
 L 149.961,-118.377 L 149.891,-117.379 z
M 38.85,-114.337 L 38.85,-115.337 L 38.05,-115.337 L 38.05,-118.837 L 38.85,-118.837 L 38.85,-123.837
 L 38.05,-123.837 L 38.05,-127.337 L 38.85,-127.337 L 38.85,-128.337 L 52.85,-128.337 L 52.85,-127.337
 L 53.65,-127.337 L 53.65,-123.837 L 52.85,-123.837 L 52.85,-118.837 L 53.65,-118.837 L 53.65,-115.337
 L 52.85,-115.337 L 52.85,-114.337 z
M 154.719,-114.034 L 154.789,-115.032 L 153.991,-115.088 L 154.235,-118.579 L 155.033,-118.523 L 155.382,-123.511
 L 154.584,-123.567 L 154.828,-127.059 L 155.626,-127.003 L 155.696,-128 L 169.662,-127.024 L 169.592,-126.026
 L 170.39,-125.97 L 170.146,-122.479 L 169.348,-122.535 L 168.999,-117.547 L 169.797,-117.491 L 169.553,-114
 L 168.755,-114.055 L 168.685,-113.058 z
M 115.766,-113.634 L 115.8,-114.633 L 115.001,-114.661 L 115.123,-118.159 L 115.923,-118.131 L 116.097,-123.128
 L 115.298,-123.156 L 115.42,-126.654 L 116.219,-126.626 L 116.254,-127.625 L 130.246,-127.136 L 130.211,-126.137
 L 131.01,-126.109 L 130.888,-122.611 L 130.089,-122.639 L 129.914,-117.642 L 130.714,-117.614 L 130.591,-114.116
 L 129.792,-114.144 L 129.757,-113.145 z
M 57.9,-109.575 L 57.9,-110.575 L 57.1,-110.575 L 57.1,-114.075 L 57.9,-114.075 L 57.9,-119.075
 L 57.1,-119.075 L 57.1,-122.575 L 57.9,-122.575 L 57.9,-123.575 L 71.9,-123.575 L 71.9,-122.575
 L 72.7,-122.575 L 72.7,-119.075 L 71.9,-119.075 L 71.9,-114.075 L 72.7,-114.075 L 72.7,-110.575
 L 71.9,-110.575 L 71.9,-109.575 z
M 76.95,-109.575 L 76.95,-110.575 L 76.15,-110.575 L 76.15,-114.075 L 76.95,-114.075 L 76.95,-119.075
 L 76.15,-119.075 L 76.15,-122.575 L 76.95,-122.575 L 76.95,-123.575 L 90.95,-123.575 L 90.95,-122.575
 L 91.75,-122.575 L 91.75,-119.075 L 90.95,-119.075 L 90.95,-114.075 L 91.75,-114.075 L 91.75,-110.575
 L 90.95,-110.575 L 90.95,-109.575 z
M 96,-102.025 L 96,-103.025 L 95.2,-103.025 L 95.2,-106.525 L 96,-106.525 L 96,-111.525
 L 95.2,-111.525 L 95.2,-115.025 L 96,-115.025 L 96,-116.025 L 110,-116.025 L 110,-115.025
 L 110.8,-115.025 L 110.8,-111.525 L 110,-111.525 L 110,-106.525 L 110.8,-106.525 L 110.8,-103.025
 L 110,-103.025 L 110,-102.025 z
M 134.596,-99.3523 L 134.666,-100.35 L 133.868,-100.406 L 134.112,-103.897 L 134.91,-103.841 L 135.259,-108.829
 L 134.461,-108.885 L 134.705,-112.376 L 135.503,-112.321 L 135.573,-113.318 L 149.538,-112.342 L 149.469,-111.344
 L 150.267,-111.288 L 150.023,-107.797 L 149.225,-107.853 L 148.876,-102.865 L 149.674,-102.809 L 149.43,-99.3175
 L 148.632,-99.3733 L 148.562,-98.3757 z
M 153.39,-95.0308 L 153.46,-96.0284 L 152.662,-96.0842 L 152.906,-99.5756 L 153.704,-99.5198 L 154.053,-104.508
 L 153.255,-104.563 L 153.499,-108.055 L 154.297,-107.999 L 154.367,-108.997 L 168.333,-108.02 L 168.263,-107.023
 L 169.061,-106.967 L 168.817,-103.475 L 168.019,-103.531 L 167.67,-98.5432 L 168.468,-98.4874 L 168.224,-94.996
 L 167.426,-95.0518 L 167.356,-94.0542 z
M 115.101,-94.5951 L 115.136,-95.5945 L 114.336,-95.6224 L 114.458,-99.1203 L 115.258,-99.0924 L 115.432,-104.089
 L 114.633,-104.117 L 114.755,-107.615 L 115.554,-107.587 L 115.589,-108.587 L 129.581,-108.098 L 129.546,-107.099
 L 130.345,-107.071 L 130.223,-103.573 L 129.424,-103.601 L 129.249,-98.6038 L 130.049,-98.5759 L 129.927,-95.078
 L 129.127,-95.1059 L 129.092,-94.1065 z
M 76.95,-90.525 L 76.95,-91.525 L 76.15,-91.525 L 76.15,-95.025 L 76.95,-95.025 L 76.95,-100.025
 L 76.15,-100.025 L 76.15,-103.525 L 76.95,-103.525 L 76.95,-104.525 L 90.95,-104.525 L 90.95,-103.525
 L 91.75,-103.525 L 91.75,-100.025 L 90.95,-100.025 L 90.95,-95.025 L 91.75,-95.025 L 91.75,-91.525
 L 90.95,-91.525 L 90.95,-90.525 z
M 57.9,-90.525 L 57.9,-91.525 L 57.1,-91.525 L 57.1,-95.025 L 57.9,-95.025 L 57.9,-100.025
 L 57.1,-100.025 L 57.1,-103.525 L 57.9,-103.525 L 57.9,-104.525 L 71.9,-104.525 L 71.9,-103.525
 L 72.7,-103.525 L 72.7,-100.025 L 71.9,-100.025 L 71.9,-95.025 L 72.7,-95.025 L 72.7,-91.525
 L 71.9,-91.525 L 71.9,-90.525 z
M 38.85,-90.525 L 38.85,-91.525 L 38.05,-91.525 L 38.05,-95.025 L 38.85,-95.025 L 38.85,-100.025
 L 38.05,-100.025 L 38.05,-103.525 L 38.85,-103.525 L 38.85,-104.525 L 52.85,-104.525 L 52.85,-103.525
 L 53.65,-103.525 L 53.65,-100.025 L 52.85,-100.025 L 52.85,-95.025 L 53.65,-95.025 L 53.65,-91.525
 L 52.85,-91.525 L 52.85,-90.525 z
M 133.267,-80.3487 L 133.337,-81.3463 L 132.539,-81.4021 L 132.783,-84.8936 L 133.581,-84.8378 L 133.93,-89.8256
 L 133.132,-89.8814 L 133.376,-93.3729 L 134.174,-93.3171 L 134.244,-94.3146 L 148.21,-93.3381 L 148.14,-92.3405
 L 148.938,-92.2847 L 148.694,-88.7932 L 147.896,-88.849 L 147.547,-83.8612 L 148.345,-83.8054 L 148.101,-80.3139
 L 147.303,-80.3697 L 147.233,-79.3722 z
M 152.061,-76.0272 L 152.131,-77.0248 L 151.333,-77.0806 L 151.577,-80.572 L 152.375,-80.5162 L 152.724,-85.5041
 L 151.926,-85.5599 L 152.17,-89.0513 L 152.968,-88.9955 L 153.038,-89.9931 L 167.004,-89.0165 L 166.934,-88.0189
 L 167.732,-87.9631 L 167.488,-84.4716 L 166.69,-84.5275 L 166.341,-79.5396 L 167.139,-79.4838 L 166.895,-75.9924
 L 166.097,-76.0482 L 166.027,-75.0506 z
M 57.9,-66.7125 L 57.9,-67.7125 L 57.1,-67.7125 L 57.1,-71.2125 L 57.9,-71.2125 L 57.9,-76.2125
 L 57.1,-76.2125 L 57.1,-79.7125 L 57.9,-79.7125 L 57.9,-80.7125 L 71.9,-80.7125 L 71.9,-79.7125
 L 72.7,-79.7125 L 72.7,-76.2125 L 71.9,-76.2125 L 71.9,-71.2125 L 72.7,-71.2125 L 72.7,-67.7125
 L 71.9,-67.7125 L 71.9,-66.7125 z
M 80.2555,-64.4737 L 80.7555,-65.3397 L 80.0626,-65.7397 L 81.8126,-68.7708 L 82.5055,-68.3708 L 85.0055,-72.7009
 L 84.3126,-73.1009 L 86.0626,-76.132 L 86.7555,-75.732 L 87.2555,-76.598 L 99.3798,-69.598 L 98.8798,-68.732
 L 99.5726,-68.332 L 97.8226,-65.3009 L 97.1298,-65.7009 L 94.6298,-61.3708 L 95.3226,-60.9708 L 93.5726,-57.9397
 L 92.8798,-58.3397 L 92.3798,-57.4736 z
M 36.9202,-58.3397 L 36.2274,-57.9397 L 34.4774,-60.9708 L 35.1702,-61.3708 L 32.6702,-65.7009 L 31.9774,-65.3009
 L 30.2274,-68.332 L 30.9202,-68.732 L 30.4202,-69.598 L 42.5445,-76.598 L 43.0445,-75.732 L 43.7374,-76.132
 L 45.4874,-73.1009 L 44.7945,-72.7009 L 47.2945,-68.3708 L 47.9874,-68.7708 L 49.7374,-65.7397 L 49.0445,-65.3397
 L 49.5445,-64.4737 L 37.4202,-57.4736 z
M 20.0064,-40.7899 L 20.4064,-41.4827 L 16.0763,-43.9827 L 15.6763,-43.2899 L 12.6452,-45.0399 L 13.0452,-45.7327
 L 12.1792,-46.2327 L 19.1792,-58.357 L 20.0452,-57.857 L 20.4452,-58.5499 L 23.4763,-56.7999 L 23.0763,-56.107
 L 27.4064,-53.607 L 27.8064,-54.2999 L 30.8375,-52.5499 L 30.4375,-51.857 L 31.3035,-51.357 L 24.3035,-39.2327
 L 23.4375,-39.7327 L 23.0375,-39.0399 z
M 9.06471,-16.0772 L 9.06471,-16.8772 L 8.06471,-16.8772 L 8.06471,-30.8772 L 9.06471,-30.8772 L 9.06471,-31.6772
 L 12.5647,-31.6772 L 12.5647,-30.8772 L 17.5647,-30.8772 L 17.5647,-31.6772 L 21.0647,-31.6772 L 21.0647,-30.8772
 L 22.0647,-30.8772 L 22.0647,-16.8772 L 21.0647,-16.8772 L 21.0647,-16.0772 L 17.5647,-16.0772 L 17.5647,-16.8772
 L 12.5647,-16.8772 L 12.5647,-16.0772 z
M 66.9192,-10.2151 L 66.2264,-9.81506 L 64.4764,-12.8462 L 65.1692,-13.2462 L 62.6692,-17.5763 L 61.9764,-17.1763
 L 60.2264,-20.2074 L 60.9192,-20.6074 L 60.4192,-21.4734 L 72.5436,-28.4734 L 73.0436,-27.6074 L 73.7364,-28.0074
 L 75.4864,-24.9763 L 74.7936,-24.5763 L 77.2936,-20.2462 L 77.9864,-20.6462 L 79.7364,-17.6151 L 79.0436,-17.2151
 L 79.5436,-16.349 L 67.4192,-9.34904 z
" stroke="rgb(0,0,255)" fill="rgb(255,255,255)" stroke-width="0.01"/></svg>
